<svg width="368" height="286" viewBox="0 0 368 286" fill="none" xmlns="http://www.w3.org/2000/svg">
<rect width="368" height="286" fill="white"/>
<path d="M103.249 157.5V129.1H108.769V152.66H123.249V157.5H103.249ZM124.648 151.3C124.648 149.94 125.022 148.753 125.768 147.74C126.542 146.7 127.608 145.9 128.968 145.34C130.328 144.78 131.888 144.5 133.648 144.5C134.528 144.5 135.422 144.567 136.328 144.7C137.235 144.833 138.022 145.047 138.688 145.34V144.22C138.688 142.887 138.288 141.86 137.488 141.14C136.715 140.42 135.555 140.06 134.008 140.06C132.862 140.06 131.768 140.26 130.728 140.66C129.688 141.06 128.595 141.647 127.448 142.42L125.728 138.9C127.115 137.993 128.528 137.313 129.968 136.86C131.435 136.407 132.968 136.18 134.568 136.18C137.555 136.18 139.875 136.927 141.528 138.42C143.208 139.913 144.048 142.047 144.048 144.82V151.5C144.048 152.06 144.142 152.46 144.328 152.7C144.542 152.94 144.875 153.087 145.328 153.14V157.5C144.848 157.58 144.408 157.647 144.008 157.7C143.635 157.753 143.315 157.78 143.048 157.78C141.982 157.78 141.168 157.54 140.608 157.06C140.075 156.58 139.742 155.993 139.608 155.3L139.488 154.22C138.582 155.393 137.448 156.3 136.088 156.94C134.728 157.58 133.342 157.9 131.928 157.9C130.542 157.9 129.288 157.62 128.168 157.06C127.075 156.473 126.208 155.687 125.568 154.7C124.955 153.687 124.648 152.553 124.648 151.3ZM137.688 152.38C137.982 152.06 138.222 151.74 138.408 151.42C138.595 151.1 138.688 150.807 138.688 150.54V148.42C138.048 148.153 137.355 147.953 136.608 147.82C135.862 147.66 135.155 147.58 134.488 147.58C133.102 147.58 131.955 147.887 131.048 148.5C130.168 149.087 129.728 149.873 129.728 150.86C129.728 151.393 129.875 151.9 130.168 152.38C130.462 152.86 130.888 153.247 131.448 153.54C132.008 153.833 132.675 153.98 133.448 153.98C134.248 153.98 135.035 153.833 135.808 153.54C136.582 153.22 137.208 152.833 137.688 152.38ZM148.857 149.66V136.54H154.217V148.5C154.217 150.1 154.511 151.313 155.097 152.14C155.684 152.94 156.551 153.34 157.697 153.34C158.391 153.34 159.071 153.207 159.737 152.94C160.431 152.647 161.057 152.22 161.617 151.66C162.204 151.1 162.697 150.393 163.097 149.54V136.54H168.457V151.5C168.457 152.06 168.551 152.46 168.737 152.7C168.951 152.94 169.284 153.087 169.737 153.14V157.5C169.204 157.58 168.751 157.633 168.377 157.66C168.031 157.713 167.711 157.74 167.417 157.74C166.457 157.74 165.671 157.527 165.057 157.1C164.471 156.647 164.124 156.033 164.017 155.26L163.897 153.58C162.964 154.993 161.764 156.073 160.297 156.82C158.831 157.54 157.217 157.9 155.457 157.9C153.297 157.9 151.657 157.207 150.537 155.82C149.417 154.407 148.857 152.353 148.857 149.66ZM193.264 157.5H187.904V145.74C187.904 144.06 187.61 142.833 187.024 142.06C186.437 141.287 185.624 140.9 184.584 140.9C183.864 140.9 183.13 141.087 182.384 141.46C181.664 141.833 181.01 142.353 180.424 143.02C179.837 143.66 179.41 144.407 179.144 145.26V157.5H173.784V136.54H178.624V140.42C179.157 139.513 179.837 138.753 180.664 138.14C181.49 137.5 182.437 137.02 183.504 136.7C184.597 136.353 185.744 136.18 186.944 136.18C188.25 136.18 189.317 136.42 190.144 136.9C190.997 137.353 191.637 137.98 192.064 138.78C192.517 139.553 192.824 140.433 192.984 141.42C193.17 142.407 193.264 143.407 193.264 144.42V157.5ZM207.684 157.9C205.978 157.9 204.444 157.62 203.084 157.06C201.724 156.473 200.564 155.673 199.604 154.66C198.644 153.62 197.898 152.447 197.364 151.14C196.858 149.833 196.604 148.46 196.604 147.02C196.604 145.047 197.044 143.247 197.924 141.62C198.831 139.967 200.111 138.647 201.764 137.66C203.418 136.673 205.378 136.18 207.644 136.18C209.911 136.18 211.858 136.673 213.484 137.66C215.111 138.647 216.324 139.94 217.124 141.54L211.884 143.14C211.431 142.367 210.831 141.78 210.084 141.38C209.338 140.953 208.511 140.74 207.604 140.74C206.591 140.74 205.658 141.007 204.804 141.54C203.978 142.047 203.324 142.78 202.844 143.74C202.364 144.673 202.124 145.767 202.124 147.02C202.124 148.247 202.364 149.34 202.844 150.3C203.351 151.233 204.018 151.98 204.844 152.54C205.671 153.073 206.591 153.34 207.604 153.34C208.244 153.34 208.844 153.233 209.404 153.02C209.991 152.807 210.511 152.513 210.964 152.14C211.418 151.767 211.751 151.34 211.964 150.86L217.204 152.46C216.724 153.5 216.018 154.433 215.084 155.26C214.178 156.087 213.098 156.74 211.844 157.22C210.618 157.673 209.231 157.9 207.684 157.9ZM239.983 157.5H234.623V145.74C234.623 144.113 234.303 142.9 233.663 142.1C233.049 141.3 232.196 140.9 231.103 140.9C230.463 140.9 229.783 141.087 229.063 141.46C228.343 141.833 227.689 142.353 227.103 143.02C226.543 143.66 226.129 144.407 225.863 145.26V157.5H220.503V128.3H225.863V140.42C226.636 139.087 227.689 138.047 229.023 137.3C230.356 136.553 231.809 136.18 233.383 136.18C234.743 136.18 235.849 136.42 236.703 136.9C237.556 137.353 238.223 137.98 238.703 138.78C239.183 139.553 239.516 140.433 239.703 141.42C239.889 142.38 239.983 143.38 239.983 144.42V157.5ZM247.772 129.1L254.812 139.58L261.812 129.1H267.812L257.972 143.5L267.492 157.5H261.492L254.812 147.42L248.092 157.5H242.052L251.572 143.5L241.732 129.1H247.772Z" fill="black"/>
</svg>
