<svg width="368" height="286" viewBox="0 0 368 286" fill="none" xmlns="http://www.w3.org/2000/svg">
<rect width="368" height="286" fill="white"/>
<path d="M58.6361 183.941H56.4677V193.165H61.7399L61.4422 191.115H58.6361V183.941V183.941ZM67.8199 183.941H65.3113L62.0375 193.165H64.2059L64.8436 191.286H67.9474L68.7127 193.335L71.0512 193.037L67.8199 183.941ZM65.3538 189.407L66.2892 186.119L67.3947 189.407H65.3538ZM79.3421 183.941H77.0036V190.517C76.3659 190.987 75.7706 191.286 75.1329 191.286C74.3676 191.286 73.8999 190.816 73.8999 189.877V183.941H71.5614V190.175C71.5614 192.353 72.6669 193.165 74.3676 193.165C75.3029 193.165 76.2383 192.866 77.0036 192.225L77.1737 192.994H79.0445V183.941H79.3421V183.941ZM84.019 183.941H80.7452V192.994H83.0836V189.877H83.7214L85.7622 193.165L88.1007 192.866L85.9323 189.578C87.0378 189.108 87.633 188.168 87.633 186.93C87.5905 185.008 86.315 183.941 84.019 183.941ZM83.2112 188.296V185.649H83.9765C84.9119 185.649 85.5497 186.119 85.5497 186.887C85.5497 187.656 84.9119 188.296 83.9765 188.296H83.2112ZM94.5634 183.941H88.951V193.165H94.6909V191.286H91.1194V189.236H93.9256L93.7555 187.528H91.1194V185.82H94.5208C94.5634 185.82 94.5634 183.941 94.5634 183.941ZM100.941 183.941H98.4324L95.1586 193.165H97.327L97.9648 191.286H101.069L101.834 193.335L104.172 193.037C104.215 192.994 100.941 183.941 100.941 183.941ZM98.6025 189.407L99.708 186.119L100.643 189.407H98.6025ZM111.698 183.941H104.555V185.82H107.063V193.165H109.402V185.82H112.038L111.698 183.941ZM118.543 183.941H112.931V193.165H118.671V191.286H115.099V189.236H118.076L117.778 187.528H115.099V185.82H118.501C118.543 185.82 118.543 183.941 118.543 183.941ZM122.582 183.941H124.921V192.994H122.582V183.941ZM134.105 183.941H131.936V189.108L128.662 183.941H126.324V193.165H128.492V187.699L132.064 193.165H134.105V183.941ZM142.31 183.941H135.04V185.82H137.676V193.165H139.844V185.82H142.651L142.31 183.941ZM149.156 183.941H143.416V193.165H149.156V191.286H145.754V189.236H148.561L148.39 187.528H145.754V185.82H149.156V183.941ZM153.535 183.941H150.261V192.994H152.6V189.877H153.237L155.278 193.165L157.617 192.866L155.448 189.578C156.554 189.108 157.149 188.168 157.149 186.93C157.107 185.008 155.874 183.941 153.535 183.941ZM152.6 188.296V185.649H153.365C154.3 185.649 154.938 186.119 154.938 186.887C154.938 187.656 154.3 188.296 153.365 188.296H152.6ZM165.993 183.941H163.952V189.108L160.678 183.941H158.34V193.165H160.508V187.699L164.079 193.165H165.95V183.941H165.993ZM172.668 183.941H170.159L166.886 193.165H169.054L169.692 191.286H172.796L173.561 193.335L175.899 193.037L172.668 183.941ZM170.33 189.407L171.435 186.119L172.37 189.407H170.33ZM183.382 183.941H176.239V185.82H178.748V193.165H181.086V185.82H183.723L183.382 183.941ZM184.785 183.941H187.124V192.994H184.785V183.941ZM192.566 183.77C189.93 183.77 188.229 185.649 188.229 188.595C188.229 191.414 189.93 193.293 192.439 193.293H192.609C195.245 193.293 196.945 191.414 196.945 188.467C196.945 185.82 195.202 183.77 192.566 183.77ZM192.566 191.585C191.333 191.585 190.525 190.474 190.525 188.595C190.525 186.716 191.291 185.606 192.566 185.606C193.969 185.606 194.607 186.716 194.607 188.595C194.735 190.346 193.799 191.585 192.566 191.585ZM205.789 183.941H203.748V189.108L200.347 183.941H198.008V193.165H200.177V187.699L203.748 193.165H205.789V183.941ZM212.464 183.941H209.956L206.682 193.165H208.85L209.488 191.286H212.592L213.357 193.335L215.696 193.037L212.464 183.941ZM209.998 189.407L210.934 186.119L211.869 189.407H209.998ZM218.714 183.941H216.376V193.165H221.818L221.521 191.115H218.714V183.941ZM232.873 183.941H230.704V190.517C230.067 190.987 229.471 191.286 228.834 191.286C228.068 191.286 227.601 190.816 227.601 189.877V183.941H225.262V190.175C225.262 192.353 226.368 193.165 228.068 193.165C229.004 193.165 229.939 192.866 230.704 192.225L230.874 192.994H232.745L232.873 183.941ZM242.056 183.941H240.016V189.108L236.614 183.941H234.446V193.165H236.614V187.699L240.186 193.165H242.056V183.941V183.941ZM243.587 183.941H245.926V192.994H243.587V183.941ZM249.37 183.941L246.861 184.24L249.965 193.165H252.473L255.747 183.941H253.409L251.368 190.346L249.37 183.941ZM262.252 183.941H256.512V193.165H262.422V191.286H258.851V189.236H261.657L261.487 187.528H258.851V185.82H262.252V183.941ZM266.632 183.941H263.358V192.994H265.696V189.877H266.334L268.375 193.165L270.713 192.866L268.545 189.578C269.65 189.108 270.246 188.168 270.246 186.93C270.203 185.008 268.97 183.941 266.632 183.941ZM265.696 188.296V185.649H266.462C267.397 185.649 268.035 186.119 268.035 186.887C268.035 187.656 267.397 188.296 266.462 188.296H265.696ZM274.412 183.941C272.712 183.941 271.309 184.88 271.309 186.588C271.309 188.168 272.074 188.766 273.945 189.407C275.178 189.877 275.518 190.175 275.518 190.645C275.518 191.286 275.05 191.414 274.412 191.414C273.477 191.414 272.542 191.115 271.436 190.645L271.138 192.524C272.074 192.994 273.307 193.293 274.412 193.293C276.283 193.293 277.686 192.524 277.686 190.474C277.686 189.065 276.921 188.296 274.88 187.656C273.775 187.186 273.477 187.015 273.477 186.546C273.477 186.076 273.775 185.777 274.412 185.777C275.178 185.777 275.985 186.076 276.751 186.546L277.048 184.667C276.411 184.112 275.645 183.941 274.412 183.941ZM278.749 183.941H281.088V192.994H278.749V183.941ZM289.336 183.941L289.634 185.82H286.827V193.165H284.659V185.82H282.023V183.941H289.336ZM290.569 183.941H292.907V192.994H290.569V183.941ZM300.05 183.941H294.31V193.165H300.22V191.286H296.649V189.236H299.625L299.328 187.528H296.691V185.82H300.093L300.05 183.941ZM304.26 183.941C302.559 183.941 301.156 184.88 301.156 186.588C301.156 188.168 301.921 188.766 303.792 189.407C305.025 189.877 305.365 190.175 305.365 190.645C305.365 191.286 304.897 191.414 304.26 191.414C303.324 191.414 302.389 191.115 301.283 190.645L300.986 192.524C301.921 192.994 303.154 193.293 304.26 193.293C306.13 193.293 307.533 192.524 307.533 190.474C307.533 189.065 306.768 188.296 304.727 187.656C303.622 187.186 303.324 187.015 303.324 186.546C303.324 186.076 303.622 185.777 304.26 185.777C305.025 185.777 305.833 186.076 306.768 186.546L307.066 184.667C306.13 184.112 305.365 183.941 304.26 183.941ZM309.404 184.539C308.639 184.539 308.001 185.179 308.001 185.948C308.001 186.716 308.639 187.357 309.404 187.357C310.17 187.357 310.807 186.716 310.807 185.948C310.807 185.179 310.17 184.539 309.404 184.539ZM309.404 187.229C308.766 187.229 308.299 186.759 308.299 185.99C308.299 185.222 308.766 184.752 309.404 184.752C310.042 184.752 310.51 185.222 310.51 185.99C310.467 186.759 309.999 187.229 309.404 187.229ZM309.404 185.179H308.766V186.759H309.234V186.119L309.532 186.759H309.999L309.702 186.119C309.872 186.119 309.999 185.948 309.999 185.649C309.999 185.35 309.702 185.179 309.404 185.179ZM309.234 185.82V185.521H309.404C309.574 185.521 309.574 185.521 309.574 185.692C309.532 185.82 309.532 185.82 309.234 185.82ZM56 169.251H311.105V170.489H56V169.251ZM56 92.0854V133.636C56 138.803 57.1055 145.038 63.0154 149.735C70.1583 155.372 81.6806 155.97 89.929 155.97C99.1127 155.97 109.827 155.03 116.672 150.333C123.815 145.636 124.751 139.572 124.751 133.465V92.0427C117.735 92.0427 111.698 94.2206 108.892 97.3379V131.245C108.892 134.533 108.892 138.76 104.385 141.536C101.111 143.586 95.8389 144.056 89.7589 144.056C84.9544 144.056 79.6397 143.885 76.3659 141.707C72.4968 139.187 72.3267 135.771 72.3267 132.312V97.2952C69.2229 94.2633 63.1429 92.0854 56 92.0854ZM219.182 92.0854C211.104 92.0854 204.258 94.2633 200.985 97.3806L175.942 135.515L150.899 97.3806C147.625 94.2633 140.78 92.0854 132.872 92.0854H127.855L170.5 155.97H181.682L224.454 92.0854H219.182ZM310.34 92.0854C303.197 92.0854 296.947 94.2633 294.183 97.3806L269.438 124.711L244.863 97.5088C242.057 94.2206 235.849 92.0427 228.536 92.0427H227.771V155.927H243.502V116.384L269.31 145.892L295.118 116.384V156.055H311.147V92H310.34V92.0854Z" fill="#D9272E"/>
</svg>
