<svg width="176" height="174" viewBox="0 0 176 174" fill="none" xmlns="http://www.w3.org/2000/svg">
<rect width="176" height="174" fill="white"/>
<g clip-path="url(#clip0_1_324)">
<rect width="32" height="32" transform="translate(16 99)" fill="white"/>
<path d="M26.8 116.787L30.5733 113.013L21.2133 103.667C19.1333 105.747 19.1333 109.12 21.2133 111.213L26.8 116.787V116.787ZM35.84 114.373C37.88 115.32 40.7467 114.653 42.8667 112.533C45.4133 109.987 45.9067 106.333 43.9467 104.373C42 102.427 38.3467 102.907 35.7867 105.453C33.6667 107.573 33 110.44 33.9467 112.48L20.9333 125.493L22.8133 127.373L32 118.213L41.1733 127.387L43.0533 125.507L33.88 116.333L35.84 114.373V114.373Z" fill="#2A7AE4"/>
</g>
<path d="M16.496 148.24C16.496 147.547 16.6187 146.869 16.864 146.208C17.12 145.536 17.488 144.928 17.968 144.384C18.448 143.829 19.0347 143.392 19.728 143.072C20.4213 142.741 21.2107 142.576 22.096 142.576C23.1413 142.576 24.0427 142.805 24.8 143.264C25.568 143.723 26.1387 144.32 26.512 145.056L24.816 146.224C24.624 145.797 24.3733 145.461 24.064 145.216C23.7547 144.96 23.424 144.784 23.072 144.688C22.72 144.581 22.3733 144.528 22.032 144.528C21.4773 144.528 20.992 144.64 20.576 144.864C20.1707 145.088 19.8293 145.381 19.552 145.744C19.2747 146.107 19.0667 146.512 18.928 146.96C18.8 147.408 18.736 147.856 18.736 148.304C18.736 148.805 18.816 149.291 18.976 149.76C19.136 150.219 19.36 150.629 19.648 150.992C19.9467 151.344 20.2987 151.627 20.704 151.84C21.12 152.043 21.5733 152.144 22.064 152.144C22.416 152.144 22.7733 152.085 23.136 151.968C23.4987 151.851 23.8347 151.664 24.144 151.408C24.4533 151.152 24.6933 150.821 24.864 150.416L26.672 151.456C26.448 152.021 26.08 152.501 25.568 152.896C25.0667 153.291 24.5013 153.589 23.872 153.792C23.2427 153.995 22.6187 154.096 22 154.096C21.1893 154.096 20.448 153.931 19.776 153.6C19.104 153.259 18.5227 152.811 18.032 152.256C17.552 151.691 17.1733 151.061 16.896 150.368C16.6293 149.664 16.496 148.955 16.496 148.24ZM31.7855 154.16C31.1028 154.16 30.4895 154.048 29.9455 153.824C29.4015 153.589 28.9375 153.269 28.5535 152.864C28.1802 152.459 27.8922 151.995 27.6895 151.472C27.4868 150.949 27.3855 150.4 27.3855 149.824C27.3855 149.237 27.4868 148.683 27.6895 148.16C27.8922 147.637 28.1802 147.173 28.5535 146.768C28.9375 146.363 29.4015 146.048 29.9455 145.824C30.4895 145.589 31.1028 145.472 31.7855 145.472C32.4682 145.472 33.0762 145.589 33.6095 145.824C34.1535 146.048 34.6175 146.363 35.0015 146.768C35.3855 147.173 35.6735 147.637 35.8655 148.16C36.0682 148.683 36.1695 149.237 36.1695 149.824C36.1695 150.4 36.0682 150.949 35.8655 151.472C35.6735 151.995 35.3855 152.459 35.0015 152.864C34.6282 153.269 34.1695 153.589 33.6255 153.824C33.0815 154.048 32.4682 154.16 31.7855 154.16ZM29.5935 149.824C29.5935 150.315 29.6895 150.752 29.8815 151.136C30.0735 151.509 30.3348 151.803 30.6655 152.016C30.9962 152.229 31.3695 152.336 31.7855 152.336C32.1908 152.336 32.5588 152.229 32.8895 152.016C33.2202 151.792 33.4815 151.493 33.6735 151.12C33.8762 150.736 33.9775 150.299 33.9775 149.808C33.9775 149.328 33.8762 148.896 33.6735 148.512C33.4815 148.128 33.2202 147.829 32.8895 147.616C32.5588 147.403 32.1908 147.296 31.7855 147.296C31.3695 147.296 30.9962 147.408 30.6655 147.632C30.3348 147.845 30.0735 148.144 29.8815 148.528C29.6895 148.901 29.5935 149.333 29.5935 149.824ZM50.6406 154H48.4966V149.296C48.4966 148.635 48.3793 148.149 48.1446 147.84C47.9206 147.52 47.606 147.36 47.2006 147.36C46.7846 147.36 46.3846 147.525 46.0006 147.856C45.6273 148.176 45.3606 148.597 45.2006 149.12V154H43.0566V149.296C43.0566 148.624 42.9393 148.133 42.7046 147.824C42.4806 147.515 42.166 147.36 41.7606 147.36C41.3446 147.36 40.9446 147.52 40.5606 147.84C40.1873 148.16 39.9206 148.581 39.7606 149.104V154H37.6166V145.616H39.5526V147.168C39.8726 146.624 40.2993 146.208 40.8326 145.92C41.366 145.621 41.9793 145.472 42.6726 145.472C43.366 145.472 43.9046 145.643 44.2886 145.984C44.6833 146.325 44.934 146.747 45.0406 147.248C45.382 146.672 45.814 146.235 46.3366 145.936C46.87 145.627 47.4673 145.472 48.1286 145.472C48.6513 145.472 49.0726 145.568 49.3926 145.76C49.7233 145.941 49.9793 146.192 50.1606 146.512C50.342 146.821 50.4646 147.173 50.5286 147.568C50.6033 147.963 50.6406 148.363 50.6406 148.768V154ZM56.3953 154.16C55.7233 154.16 55.1153 154.048 54.5713 153.824C54.0273 153.589 53.5633 153.275 53.1793 152.88C52.7953 152.475 52.4966 152.016 52.2833 151.504C52.0806 150.981 51.9793 150.432 51.9793 149.856C51.9793 149.056 52.1553 148.325 52.5073 147.664C52.8699 147.003 53.3819 146.475 54.0433 146.08C54.7153 145.675 55.5046 145.472 56.4113 145.472C57.3286 145.472 58.1126 145.675 58.7633 146.08C59.4139 146.475 59.9099 147.003 60.2513 147.664C60.6033 148.315 60.7793 149.019 60.7793 149.776C60.7793 149.904 60.7739 150.037 60.7633 150.176C60.7526 150.304 60.7419 150.411 60.7313 150.496H54.2513C54.2939 150.923 54.4166 151.296 54.6193 151.616C54.8326 151.936 55.0993 152.181 55.4193 152.352C55.7499 152.512 56.1019 152.592 56.4753 152.592C56.9019 152.592 57.3019 152.491 57.6753 152.288C58.0593 152.075 58.3206 151.797 58.4593 151.456L60.2993 151.968C60.0966 152.395 59.8033 152.773 59.4193 153.104C59.0459 153.435 58.6033 153.696 58.0913 153.888C57.5793 154.069 57.0139 154.16 56.3953 154.16ZM54.2033 149.136H58.5873C58.5446 148.709 58.4219 148.341 58.2193 148.032C58.0273 147.712 57.7713 147.467 57.4513 147.296C57.1313 147.115 56.7739 147.024 56.3793 147.024C55.9953 147.024 55.6433 147.115 55.3233 147.296C55.0139 147.467 54.7579 147.712 54.5553 148.032C54.3633 148.341 54.2459 148.709 54.2033 149.136ZM67.0774 147.472C66.4267 147.472 65.8454 147.6 65.3334 147.856C64.8214 148.101 64.4534 148.459 64.2294 148.928V154H62.0854V145.616H64.0534V147.408C64.352 146.832 64.7307 146.379 65.1894 146.048C65.648 145.717 66.1334 145.536 66.6454 145.504C66.7627 145.504 66.8534 145.504 66.9174 145.504C66.9814 145.504 67.0347 145.509 67.0774 145.52V147.472Z" fill="#464646"/>
<defs>
<clipPath id="clip0_1_324">
<rect width="32" height="32" fill="white" transform="translate(16 99)"/>
</clipPath>
</defs>
</svg>
