<svg width="176" height="174" viewBox="0 0 176 174" fill="none" xmlns="http://www.w3.org/2000/svg">
<rect width="176" height="174" fill="white"/>
<path d="M47.375 99.4375L45.5625 97.625C45.1875 97.25 44.6875 97 44.125 97C43.5625 97 43.0625 97.25 42.6875 97.625L39.8125 100.5C39.5625 100.75 39.375 101.062 39.25 101.375L38.5 103.625L33.75 108.438C33 107.875 32.1875 107.438 31.25 107.25C29.125 106.75 27.0625 107.188 25.625 108.625C25.0625 109.188 24.625 109.875 24.375 110.688C24 111.875 22.9375 112.75 21.75 112.875C20.25 113 18.875 113.562 17.8125 114.625C14.9375 117.438 15.5 122.562 18.9375 126.062C22.4375 129.5 27.5625 130 30.375 127.188C31.4375 126.125 32 124.75 32.1875 123.25C32.25 122.062 33.125 121 34.3125 120.625C35.125 120.375 35.8125 119.938 36.375 119.375C37.8125 117.938 38.25 115.875 37.75 113.75C37.5625 112.875 37.125 112 36.5625 111.25L41.375 106.5L43.625 105.75C43.9375 105.625 44.25 105.438 44.5 105.188L47.375 102.312C47.75 101.938 47.9375 101.438 47.9375 100.875C47.9375 100.312 47.75 99.8125 47.375 99.4375ZM29 119C27.3125 119 26 117.688 26 116C26 114.375 27.3125 113 29 113C30.625 113 32 114.375 32 116C32 117.688 30.625 119 29 119Z" fill="#2A7AE4"/>
<path d="M25.68 144.576H22.048V154H19.856V144.576H16.224V142.64H25.68V144.576ZM29.1761 154.16C28.4935 154.16 27.8801 154.048 27.3361 153.824C26.7921 153.589 26.3281 153.269 25.9441 152.864C25.5708 152.459 25.2828 151.995 25.0801 151.472C24.8775 150.949 24.7761 150.4 24.7761 149.824C24.7761 149.237 24.8775 148.683 25.0801 148.16C25.2828 147.637 25.5708 147.173 25.9441 146.768C26.3281 146.363 26.7921 146.048 27.3361 145.824C27.8801 145.589 28.4935 145.472 29.1761 145.472C29.8588 145.472 30.4668 145.589 31.0001 145.824C31.5441 146.048 32.0081 146.363 32.3921 146.768C32.7761 147.173 33.0641 147.637 33.2561 148.16C33.4588 148.683 33.5601 149.237 33.5601 149.824C33.5601 150.4 33.4588 150.949 33.2561 151.472C33.0641 151.995 32.7761 152.459 32.3921 152.864C32.0188 153.269 31.5601 153.589 31.0161 153.824C30.4721 154.048 29.8588 154.16 29.1761 154.16ZM26.9841 149.824C26.9841 150.315 27.0801 150.752 27.2721 151.136C27.4641 151.509 27.7255 151.803 28.0561 152.016C28.3868 152.229 28.7601 152.336 29.1761 152.336C29.5815 152.336 29.9495 152.229 30.2801 152.016C30.6108 151.792 30.8721 151.493 31.0641 151.12C31.2668 150.736 31.3681 150.299 31.3681 149.808C31.3681 149.328 31.2668 148.896 31.0641 148.512C30.8721 148.128 30.6108 147.829 30.2801 147.616C29.9495 147.403 29.5815 147.296 29.1761 147.296C28.7601 147.296 28.3868 147.408 28.0561 147.632C27.7255 147.845 27.4641 148.144 27.2721 148.528C27.0801 148.901 26.9841 149.333 26.9841 149.824ZM38.9113 154.16C38.2286 154.16 37.6153 154.048 37.0713 153.824C36.5273 153.589 36.0633 153.269 35.6793 152.864C35.2953 152.448 34.9966 151.979 34.7833 151.456C34.5806 150.933 34.4793 150.384 34.4793 149.808C34.4793 149.019 34.6553 148.299 35.0073 147.648C35.3699 146.987 35.8819 146.459 36.5433 146.064C37.2046 145.669 37.9886 145.472 38.8953 145.472C39.8019 145.472 40.5806 145.669 41.2313 146.064C41.8819 146.459 42.3673 146.976 42.6873 147.616L40.5913 148.256C40.4099 147.947 40.1699 147.712 39.8713 147.552C39.5726 147.381 39.2419 147.296 38.8793 147.296C38.4739 147.296 38.1006 147.403 37.7593 147.616C37.4286 147.819 37.1673 148.112 36.9753 148.496C36.7833 148.869 36.6873 149.307 36.6873 149.808C36.6873 150.299 36.7833 150.736 36.9753 151.12C37.1779 151.493 37.4446 151.792 37.7753 152.016C38.1059 152.229 38.4739 152.336 38.8793 152.336C39.1353 152.336 39.3753 152.293 39.5993 152.208C39.8339 152.123 40.0419 152.005 40.2233 151.856C40.4046 151.707 40.5379 151.536 40.6233 151.344L42.7193 151.984C42.5273 152.4 42.2446 152.773 41.8713 153.104C41.5086 153.435 41.0766 153.696 40.5753 153.888C40.0846 154.069 39.5299 154.16 38.9113 154.16ZM43.4625 151.52C43.4625 150.976 43.6118 150.501 43.9105 150.096C44.2198 149.68 44.6465 149.36 45.1905 149.136C45.7345 148.912 46.3585 148.8 47.0625 148.8C47.4145 148.8 47.7718 148.827 48.1345 148.88C48.4972 148.933 48.8118 149.019 49.0785 149.136V148.688C49.0785 148.155 48.9185 147.744 48.5985 147.456C48.2892 147.168 47.8252 147.024 47.2065 147.024C46.7478 147.024 46.3105 147.104 45.8945 147.264C45.4785 147.424 45.0412 147.659 44.5825 147.968L43.8945 146.56C44.4492 146.197 45.0145 145.925 45.5905 145.744C46.1772 145.563 46.7905 145.472 47.4305 145.472C48.6252 145.472 49.5532 145.771 50.2145 146.368C50.8865 146.965 51.2225 147.819 51.2225 148.928V151.6C51.2225 151.824 51.2598 151.984 51.3345 152.08C51.4198 152.176 51.5532 152.235 51.7345 152.256V154C51.5425 154.032 51.3665 154.059 51.2065 154.08C51.0572 154.101 50.9292 154.112 50.8225 154.112C50.3958 154.112 50.0705 154.016 49.8465 153.824C49.6332 153.632 49.4998 153.397 49.4465 153.12L49.3985 152.688C49.0358 153.157 48.5825 153.52 48.0385 153.776C47.4945 154.032 46.9398 154.16 46.3745 154.16C45.8198 154.16 45.3185 154.048 44.8705 153.824C44.4332 153.589 44.0865 153.275 43.8305 152.88C43.5852 152.475 43.4625 152.021 43.4625 151.52ZM48.6785 151.952C48.7958 151.824 48.8918 151.696 48.9665 151.568C49.0412 151.44 49.0785 151.323 49.0785 151.216V150.368C48.8225 150.261 48.5452 150.181 48.2465 150.128C47.9478 150.064 47.6652 150.032 47.3985 150.032C46.8438 150.032 46.3852 150.155 46.0225 150.4C45.6705 150.635 45.4945 150.949 45.4945 151.344C45.4945 151.557 45.5532 151.76 45.6705 151.952C45.7878 152.144 45.9585 152.299 46.1825 152.416C46.4065 152.533 46.6732 152.592 46.9825 152.592C47.3025 152.592 47.6172 152.533 47.9265 152.416C48.2358 152.288 48.4865 152.133 48.6785 151.952ZM58.218 147.472C57.5673 147.472 56.986 147.6 56.474 147.856C55.962 148.101 55.594 148.459 55.37 148.928V154H53.226V145.616H55.194V147.408C55.4927 146.832 55.8713 146.379 56.33 146.048C56.7887 145.717 57.274 145.536 57.786 145.504C57.9033 145.504 57.994 145.504 58.058 145.504C58.122 145.504 58.1753 145.509 58.218 145.52V147.472ZM66.1779 154.048C65.6232 154.048 65.1112 153.941 64.6419 153.728C64.1832 153.504 63.7832 153.195 63.4419 152.8C63.1112 152.405 62.8552 151.952 62.6739 151.44C62.4925 150.928 62.4019 150.384 62.4019 149.808C62.4019 149.2 62.4979 148.635 62.6899 148.112C62.8819 147.589 63.1485 147.131 63.4899 146.736C63.8419 146.331 64.2525 146.021 64.7219 145.808C65.2019 145.584 65.7299 145.472 66.3059 145.472C66.9565 145.472 67.5272 145.621 68.0179 145.92C68.5085 146.208 68.9139 146.597 69.2339 147.088V145.616H71.1059V153.6C71.1059 154.432 70.9032 155.141 70.4979 155.728C70.1032 156.325 69.5539 156.779 68.8499 157.088C68.1459 157.408 67.3459 157.568 66.4499 157.568C65.5432 157.568 64.7752 157.413 64.1459 157.104C63.5165 156.805 62.9779 156.379 62.5299 155.824L63.6979 154.688C64.0179 155.083 64.4179 155.392 64.8979 155.616C65.3885 155.84 65.9059 155.952 66.4499 155.952C66.9085 155.952 67.3245 155.867 67.6979 155.696C68.0819 155.536 68.3859 155.28 68.6099 154.928C68.8445 154.587 68.9619 154.144 68.9619 153.6V152.544C68.6845 153.024 68.2899 153.397 67.7779 153.664C67.2765 153.92 66.7432 154.048 66.1779 154.048ZM66.8979 152.336C67.1325 152.336 67.3565 152.299 67.5699 152.224C67.7832 152.149 67.9805 152.048 68.1619 151.92C68.3432 151.792 68.5032 151.643 68.6419 151.472C68.7805 151.291 68.8872 151.109 68.9619 150.928V148.928C68.8339 148.597 68.6525 148.309 68.4179 148.064C68.1939 147.819 67.9379 147.632 67.6499 147.504C67.3725 147.365 67.0792 147.296 66.7699 147.296C66.4392 147.296 66.1405 147.365 65.8739 147.504C65.6072 147.643 65.3779 147.84 65.1859 148.096C64.9939 148.341 64.8445 148.619 64.7379 148.928C64.6419 149.227 64.5939 149.541 64.5939 149.872C64.5939 150.213 64.6525 150.533 64.7699 150.832C64.8872 151.131 65.0472 151.392 65.2499 151.616C65.4632 151.84 65.7085 152.016 65.9859 152.144C66.2739 152.272 66.5779 152.336 66.8979 152.336ZM72.9585 150.864V145.616H75.1025V150.4C75.1025 151.04 75.2198 151.525 75.4545 151.856C75.6892 152.176 76.0358 152.336 76.4945 152.336C76.7718 152.336 77.0438 152.283 77.3105 152.176C77.5878 152.059 77.8385 151.888 78.0625 151.664C78.2972 151.44 78.4945 151.157 78.6545 150.816V145.616H80.7985V151.6C80.7985 151.824 80.8358 151.984 80.9105 152.08C80.9958 152.176 81.1292 152.235 81.3105 152.256V154C81.0972 154.032 80.9158 154.053 80.7665 154.064C80.6278 154.085 80.4998 154.096 80.3825 154.096C79.9985 154.096 79.6838 154.011 79.4385 153.84C79.2038 153.659 79.0652 153.413 79.0225 153.104L78.9745 152.432C78.6012 152.997 78.1212 153.429 77.5345 153.728C76.9478 154.016 76.3025 154.16 75.5985 154.16C74.7345 154.16 74.0785 153.883 73.6305 153.328C73.1825 152.763 72.9585 151.941 72.9585 150.864ZM82.9291 154V145.616H85.0731V154H82.9291ZM82.9291 144.448V142.32H85.0731V144.448H82.9291ZM92.0313 153.568C91.8499 153.643 91.6313 153.728 91.3753 153.824C91.1193 153.92 90.8419 153.995 90.5433 154.048C90.2553 154.112 89.9619 154.144 89.6633 154.144C89.2686 154.144 88.9059 154.075 88.5753 153.936C88.2446 153.797 87.9779 153.579 87.7753 153.28C87.5833 152.971 87.4873 152.571 87.4873 152.08V147.264H86.3833V145.616H87.4873V142.896H89.6313V145.616H91.3913V147.264H89.6313V151.36C89.6419 151.648 89.7219 151.856 89.8713 151.984C90.0206 152.112 90.2073 152.176 90.4313 152.176C90.6553 152.176 90.8739 152.139 91.0873 152.064C91.3006 151.989 91.4713 151.925 91.5993 151.872L92.0313 153.568ZM92.5719 151.52C92.5719 150.976 92.7212 150.501 93.0199 150.096C93.3292 149.68 93.7559 149.36 94.2999 149.136C94.8439 148.912 95.4679 148.8 96.1719 148.8C96.5239 148.8 96.8812 148.827 97.2439 148.88C97.6065 148.933 97.9212 149.019 98.1879 149.136V148.688C98.1879 148.155 98.0279 147.744 97.7079 147.456C97.3985 147.168 96.9345 147.024 96.3159 147.024C95.8572 147.024 95.4199 147.104 95.0039 147.264C94.5879 147.424 94.1505 147.659 93.6919 147.968L93.0039 146.56C93.5585 146.197 94.1239 145.925 94.6999 145.744C95.2865 145.563 95.8999 145.472 96.5399 145.472C97.7345 145.472 98.6625 145.771 99.3239 146.368C99.9959 146.965 100.332 147.819 100.332 148.928V151.6C100.332 151.824 100.369 151.984 100.444 152.08C100.529 152.176 100.663 152.235 100.844 152.256V154C100.652 154.032 100.476 154.059 100.316 154.08C100.167 154.101 100.039 154.112 99.9319 154.112C99.5052 154.112 99.1799 154.016 98.9559 153.824C98.7425 153.632 98.6092 153.397 98.5559 153.12L98.5079 152.688C98.1452 153.157 97.6919 153.52 97.1479 153.776C96.6039 154.032 96.0492 154.16 95.4839 154.16C94.9292 154.16 94.4279 154.048 93.9799 153.824C93.5425 153.589 93.1959 153.275 92.9399 152.88C92.6945 152.475 92.5719 152.021 92.5719 151.52ZM97.7879 151.952C97.9052 151.824 98.0012 151.696 98.0759 151.568C98.1505 151.44 98.1879 151.323 98.1879 151.216V150.368C97.9319 150.261 97.6545 150.181 97.3559 150.128C97.0572 150.064 96.7745 150.032 96.5079 150.032C95.9532 150.032 95.4945 150.155 95.1319 150.4C94.7799 150.635 94.6039 150.949 94.6039 151.344C94.6039 151.557 94.6625 151.76 94.7799 151.952C94.8972 152.144 95.0679 152.299 95.2919 152.416C95.5159 152.533 95.7825 152.592 96.0919 152.592C96.4119 152.592 96.7265 152.533 97.0359 152.416C97.3452 152.288 97.5959 152.133 97.7879 151.952ZM107.327 147.472C106.677 147.472 106.095 147.6 105.583 147.856C105.071 148.101 104.703 148.459 104.479 148.928V154H102.335V145.616H104.303V147.408C104.602 146.832 104.981 146.379 105.439 146.048C105.898 145.717 106.383 145.536 106.895 145.504C107.013 145.504 107.103 145.504 107.167 145.504C107.231 145.504 107.285 145.509 107.327 145.52V147.472ZM113.515 147.472C112.864 147.472 112.283 147.6 111.771 147.856C111.259 148.101 110.891 148.459 110.667 148.928V154H108.523V145.616H110.491V147.408C110.79 146.832 111.168 146.379 111.627 146.048C112.086 145.717 112.571 145.536 113.083 145.504C113.2 145.504 113.291 145.504 113.355 145.504C113.419 145.504 113.472 145.509 113.515 145.52V147.472ZM114.088 151.52C114.088 150.976 114.237 150.501 114.536 150.096C114.845 149.68 115.272 149.36 115.816 149.136C116.36 148.912 116.984 148.8 117.688 148.8C118.04 148.8 118.397 148.827 118.76 148.88C119.122 148.933 119.437 149.019 119.704 149.136V148.688C119.704 148.155 119.544 147.744 119.224 147.456C118.914 147.168 118.45 147.024 117.832 147.024C117.373 147.024 116.936 147.104 116.52 147.264C116.104 147.424 115.666 147.659 115.208 147.968L114.52 146.56C115.074 146.197 115.64 145.925 116.216 145.744C116.802 145.563 117.416 145.472 118.056 145.472C119.25 145.472 120.178 145.771 120.84 146.368C121.512 146.965 121.848 147.819 121.848 148.928V151.6C121.848 151.824 121.885 151.984 121.96 152.08C122.045 152.176 122.178 152.235 122.36 152.256V154C122.168 154.032 121.992 154.059 121.832 154.08C121.682 154.101 121.554 154.112 121.448 154.112C121.021 154.112 120.696 154.016 120.472 153.824C120.258 153.632 120.125 153.397 120.072 153.12L120.024 152.688C119.661 153.157 119.208 153.52 118.664 153.776C118.12 154.032 117.565 154.16 117 154.16C116.445 154.16 115.944 154.048 115.496 153.824C115.058 153.589 114.712 153.275 114.456 152.88C114.21 152.475 114.088 152.021 114.088 151.52ZM119.304 151.952C119.421 151.824 119.517 151.696 119.592 151.568C119.666 151.44 119.704 151.323 119.704 151.216V150.368C119.448 150.261 119.17 150.181 118.872 150.128C118.573 150.064 118.29 150.032 118.024 150.032C117.469 150.032 117.01 150.155 116.648 150.4C116.296 150.635 116.12 150.949 116.12 151.344C116.12 151.557 116.178 151.76 116.296 151.952C116.413 152.144 116.584 152.299 116.808 152.416C117.032 152.533 117.298 152.592 117.608 152.592C117.928 152.592 118.242 152.533 118.552 152.416C118.861 152.288 119.112 152.133 119.304 151.952Z" fill="#464646"/>
</svg>
