<svg width="176" height="174" viewBox="0 0 176 174" fill="none" xmlns="http://www.w3.org/2000/svg">
<rect width="176" height="174" fill="white"/>
<g clip-path="url(#clip0_1_312)">
<rect width="32" height="32" transform="translate(16 99)" fill="white"/>
<path d="M32 103C25.3733 103 20 108.373 20 115V124.333C20 125.8 21.2 127 22.6667 127H28V116.333H22.6667V115C22.6667 109.84 26.84 105.667 32 105.667C37.16 105.667 41.3333 109.84 41.3333 115V116.333H36V127H41.3333C42.8 127 44 125.8 44 124.333V115C44 108.373 38.6267 103 32 103Z" fill="#2A7AE4"/>
</g>
<path d="M25.072 152.064V154H17.184V142.64H24.928V144.576H19.392V147.312H24.176V149.104H19.392V152.064H25.072ZM29.6421 154.16C28.9275 154.16 28.2448 154.043 27.5941 153.808C26.9435 153.573 26.3835 153.227 25.9141 152.768L26.6821 151.376C27.1835 151.781 27.6741 152.08 28.1541 152.272C28.6448 152.464 29.1141 152.56 29.5621 152.56C29.9781 152.56 30.3088 152.485 30.5541 152.336C30.8101 152.187 30.9381 151.963 30.9381 151.664C30.9381 151.461 30.8688 151.307 30.7301 151.2C30.5915 151.083 30.3888 150.981 30.1221 150.896C29.8661 150.811 29.5515 150.715 29.1781 150.608C28.5595 150.405 28.0421 150.208 27.6261 150.016C27.2101 149.824 26.8955 149.584 26.6821 149.296C26.4795 148.997 26.3781 148.619 26.3781 148.16C26.3781 147.605 26.5168 147.131 26.7941 146.736C27.0821 146.331 27.4768 146.016 27.9781 145.792C28.4901 145.568 29.0875 145.456 29.7701 145.456C30.3675 145.456 30.9328 145.552 31.4661 145.744C31.9995 145.925 32.4848 146.224 32.9221 146.64L32.0581 148C31.6315 147.669 31.2261 147.429 30.8421 147.28C30.4581 147.12 30.0688 147.04 29.6741 147.04C29.4501 147.04 29.2368 147.067 29.0341 147.12C28.8421 147.173 28.6821 147.264 28.5541 147.392C28.4368 147.509 28.3781 147.68 28.3781 147.904C28.3781 148.107 28.4315 148.267 28.5381 148.384C28.6555 148.491 28.8261 148.587 29.0501 148.672C29.2848 148.757 29.5675 148.853 29.8981 148.96C30.5701 149.152 31.1355 149.349 31.5941 149.552C32.0635 149.755 32.4155 150.005 32.6501 150.304C32.8848 150.592 33.0021 150.992 33.0021 151.504C33.0021 152.336 32.6981 152.987 32.0901 153.456C31.4821 153.925 30.6661 154.16 29.6421 154.16ZM38.3644 154.16C37.6817 154.16 37.0684 154.048 36.5244 153.824C35.9804 153.589 35.5164 153.269 35.1324 152.864C34.7484 152.448 34.4497 151.979 34.2364 151.456C34.0337 150.933 33.9324 150.384 33.9324 149.808C33.9324 149.019 34.1084 148.299 34.4604 147.648C34.823 146.987 35.335 146.459 35.9964 146.064C36.6577 145.669 37.4417 145.472 38.3484 145.472C39.255 145.472 40.0337 145.669 40.6844 146.064C41.335 146.459 41.8204 146.976 42.1404 147.616L40.0444 148.256C39.863 147.947 39.623 147.712 39.3244 147.552C39.0257 147.381 38.695 147.296 38.3324 147.296C37.927 147.296 37.5537 147.403 37.2124 147.616C36.8817 147.819 36.6204 148.112 36.4284 148.496C36.2364 148.869 36.1404 149.307 36.1404 149.808C36.1404 150.299 36.2364 150.736 36.4284 151.12C36.631 151.493 36.8977 151.792 37.2284 152.016C37.559 152.229 37.927 152.336 38.3324 152.336C38.5884 152.336 38.8284 152.293 39.0524 152.208C39.287 152.123 39.495 152.005 39.6764 151.856C39.8577 151.707 39.991 151.536 40.0764 151.344L42.1724 151.984C41.9804 152.4 41.6977 152.773 41.3244 153.104C40.9617 153.435 40.5297 153.696 40.0284 153.888C39.5377 154.069 38.983 154.16 38.3644 154.16ZM43.4116 150.864V145.616H45.5556V150.4C45.5556 151.04 45.673 151.525 45.9076 151.856C46.1423 152.176 46.489 152.336 46.9476 152.336C47.225 152.336 47.497 152.283 47.7636 152.176C48.041 152.059 48.2916 151.888 48.5156 151.664C48.7503 151.44 48.9476 151.157 49.1076 150.816V145.616H51.2516V151.6C51.2516 151.824 51.289 151.984 51.3636 152.08C51.449 152.176 51.5823 152.235 51.7636 152.256V154C51.5503 154.032 51.369 154.053 51.2196 154.064C51.081 154.085 50.953 154.096 50.8356 154.096C50.4516 154.096 50.137 154.011 49.8916 153.84C49.657 153.659 49.5183 153.413 49.4756 153.104L49.4276 152.432C49.0543 152.997 48.5743 153.429 47.9876 153.728C47.401 154.016 46.7556 154.16 46.0516 154.16C45.1876 154.16 44.5316 153.883 44.0836 153.328C43.6356 152.763 43.4116 151.941 43.4116 150.864ZM57.2863 154.16C56.6036 154.16 55.9903 154.048 55.4463 153.824C54.9023 153.589 54.4383 153.269 54.0543 152.864C53.6703 152.448 53.3716 151.979 53.1583 151.456C52.9556 150.933 52.8543 150.384 52.8543 149.808C52.8543 149.019 53.0303 148.299 53.3823 147.648C53.7449 146.987 54.2569 146.459 54.9183 146.064C55.5796 145.669 56.3636 145.472 57.2703 145.472C58.1769 145.472 58.9556 145.669 59.6063 146.064C60.2569 146.459 60.7423 146.976 61.0623 147.616L58.9663 148.256C58.7849 147.947 58.5449 147.712 58.2463 147.552C57.9476 147.381 57.6169 147.296 57.2543 147.296C56.8489 147.296 56.4756 147.403 56.1343 147.616C55.8036 147.819 55.5423 148.112 55.3503 148.496C55.1583 148.869 55.0623 149.307 55.0623 149.808C55.0623 150.299 55.1583 150.736 55.3503 151.12C55.5529 151.493 55.8196 151.792 56.1503 152.016C56.4809 152.229 56.8489 152.336 57.2543 152.336C57.5103 152.336 57.7503 152.293 57.9743 152.208C58.2089 152.123 58.4169 152.005 58.5983 151.856C58.7796 151.707 58.9129 151.536 58.9983 151.344L61.0943 151.984C60.9023 152.4 60.6196 152.773 60.2463 153.104C59.8836 153.435 59.4516 153.696 58.9503 153.888C58.4596 154.069 57.9049 154.16 57.2863 154.16ZM70.2055 154H68.0615V149.296C68.0615 148.645 67.9335 148.16 67.6775 147.84C67.4322 147.52 67.0908 147.36 66.6535 147.36C66.3975 147.36 66.1255 147.435 65.8375 147.584C65.5495 147.733 65.2882 147.941 65.0535 148.208C64.8295 148.464 64.6642 148.763 64.5575 149.104V154H62.4135V142.32H64.5575V147.168C64.8668 146.635 65.2882 146.219 65.8215 145.92C66.3548 145.621 66.9362 145.472 67.5655 145.472C68.1095 145.472 68.5522 145.568 68.8935 145.76C69.2348 145.941 69.5015 146.192 69.6935 146.512C69.8855 146.821 70.0188 147.173 70.0935 147.568C70.1682 147.952 70.2055 148.352 70.2055 148.768V154ZM71.4938 151.52C71.4938 150.976 71.6431 150.501 71.9418 150.096C72.2511 149.68 72.6778 149.36 73.2218 149.136C73.7658 148.912 74.3898 148.8 75.0938 148.8C75.4458 148.8 75.8031 148.827 76.1658 148.88C76.5284 148.933 76.8431 149.019 77.1098 149.136V148.688C77.1098 148.155 76.9498 147.744 76.6298 147.456C76.3204 147.168 75.8564 147.024 75.2378 147.024C74.7791 147.024 74.3418 147.104 73.9258 147.264C73.5098 147.424 73.0724 147.659 72.6138 147.968L71.9258 146.56C72.4804 146.197 73.0458 145.925 73.6218 145.744C74.2084 145.563 74.8218 145.472 75.4618 145.472C76.6564 145.472 77.5844 145.771 78.2458 146.368C78.9178 146.965 79.2538 147.819 79.2538 148.928V151.6C79.2538 151.824 79.2911 151.984 79.3658 152.08C79.4511 152.176 79.5844 152.235 79.7658 152.256V154C79.5738 154.032 79.3978 154.059 79.2378 154.08C79.0884 154.101 78.9604 154.112 78.8538 154.112C78.4271 154.112 78.1018 154.016 77.8778 153.824C77.6644 153.632 77.5311 153.397 77.4778 153.12L77.4298 152.688C77.0671 153.157 76.6138 153.52 76.0698 153.776C75.5258 154.032 74.9711 154.16 74.4058 154.16C73.8511 154.16 73.3498 154.048 72.9018 153.824C72.4644 153.589 72.1178 153.275 71.8618 152.88C71.6164 152.475 71.4938 152.021 71.4938 151.52ZM76.7098 151.952C76.8271 151.824 76.9231 151.696 76.9978 151.568C77.0724 151.44 77.1098 151.323 77.1098 151.216V150.368C76.8538 150.261 76.5764 150.181 76.2778 150.128C75.9791 150.064 75.6964 150.032 75.4298 150.032C74.8751 150.032 74.4164 150.155 74.0538 150.4C73.7018 150.635 73.5258 150.949 73.5258 151.344C73.5258 151.557 73.5844 151.76 73.7018 151.952C73.8191 152.144 73.9898 152.299 74.2138 152.416C74.4378 152.533 74.7044 152.592 75.0138 152.592C75.3338 152.592 75.6484 152.533 75.9578 152.416C76.2671 152.288 76.5178 152.133 76.7098 151.952ZM86.2493 147.472C85.5986 147.472 85.0173 147.6 84.5052 147.856C83.9933 148.101 83.6253 148.459 83.4013 148.928V154H81.2573V145.616H83.2253V147.408C83.5239 146.832 83.9026 146.379 84.3613 146.048C84.8199 145.717 85.3053 145.536 85.8173 145.504C85.9346 145.504 86.0253 145.504 86.0893 145.504C86.1533 145.504 86.2066 145.509 86.2493 145.52V147.472ZM103.953 154H101.809V149.296C101.809 148.635 101.692 148.149 101.457 147.84C101.233 147.52 100.918 147.36 100.513 147.36C100.097 147.36 99.6971 147.525 99.3131 147.856C98.9398 148.176 98.6731 148.597 98.5131 149.12V154H96.3691V149.296C96.3691 148.624 96.2518 148.133 96.0171 147.824C95.7931 147.515 95.4785 147.36 95.0731 147.36C94.6571 147.36 94.2571 147.52 93.8731 147.84C93.4998 148.16 93.2331 148.581 93.0731 149.104V154H90.9291V145.616H92.8651V147.168C93.1851 146.624 93.6118 146.208 94.1451 145.92C94.6785 145.621 95.2918 145.472 95.9851 145.472C96.6785 145.472 97.2171 145.643 97.6011 145.984C97.9958 146.325 98.2465 146.747 98.3531 147.248C98.6945 146.672 99.1265 146.235 99.6491 145.936C100.182 145.627 100.78 145.472 101.441 145.472C101.964 145.472 102.385 145.568 102.705 145.76C103.036 145.941 103.292 146.192 103.473 146.512C103.654 146.821 103.777 147.173 103.841 147.568C103.916 147.963 103.953 148.363 103.953 148.768V154ZM105.74 150.864V145.616H107.884V150.4C107.884 151.04 108.001 151.525 108.236 151.856C108.47 152.176 108.817 152.336 109.276 152.336C109.553 152.336 109.825 152.283 110.092 152.176C110.369 152.059 110.62 151.888 110.844 151.664C111.078 151.44 111.276 151.157 111.436 150.816V145.616H113.58V151.6C113.58 151.824 113.617 151.984 113.692 152.08C113.777 152.176 113.91 152.235 114.092 152.256V154C113.878 154.032 113.697 154.053 113.548 154.064C113.409 154.085 113.281 154.096 113.164 154.096C112.78 154.096 112.465 154.011 112.22 153.84C111.985 153.659 111.846 153.413 111.804 153.104L111.756 152.432C111.382 152.997 110.902 153.429 110.316 153.728C109.729 154.016 109.084 154.16 108.38 154.16C107.516 154.16 106.86 153.883 106.412 153.328C105.964 152.763 105.74 151.941 105.74 150.864ZM110.364 144.64L108.988 144.224L109.852 142.32H111.852L110.364 144.64ZM118.798 154.16C118.084 154.16 117.401 154.043 116.75 153.808C116.1 153.573 115.54 153.227 115.07 152.768L115.838 151.376C116.34 151.781 116.83 152.08 117.31 152.272C117.801 152.464 118.27 152.56 118.718 152.56C119.134 152.56 119.465 152.485 119.71 152.336C119.966 152.187 120.094 151.963 120.094 151.664C120.094 151.461 120.025 151.307 119.886 151.2C119.748 151.083 119.545 150.981 119.278 150.896C119.022 150.811 118.708 150.715 118.334 150.608C117.716 150.405 117.198 150.208 116.782 150.016C116.366 149.824 116.052 149.584 115.838 149.296C115.636 148.997 115.534 148.619 115.534 148.16C115.534 147.605 115.673 147.131 115.95 146.736C116.238 146.331 116.633 146.016 117.134 145.792C117.646 145.568 118.244 145.456 118.926 145.456C119.524 145.456 120.089 145.552 120.622 145.744C121.156 145.925 121.641 146.224 122.078 146.64L121.214 148C120.788 147.669 120.382 147.429 119.998 147.28C119.614 147.12 119.225 147.04 118.83 147.04C118.606 147.04 118.393 147.067 118.19 147.12C117.998 147.173 117.838 147.264 117.71 147.392C117.593 147.509 117.534 147.68 117.534 147.904C117.534 148.107 117.588 148.267 117.694 148.384C117.812 148.491 117.982 148.587 118.206 148.672C118.441 148.757 118.724 148.853 119.054 148.96C119.726 149.152 120.292 149.349 120.75 149.552C121.22 149.755 121.572 150.005 121.806 150.304C122.041 150.592 122.158 150.992 122.158 151.504C122.158 152.336 121.854 152.987 121.246 153.456C120.638 153.925 119.822 154.16 118.798 154.16ZM123.617 154V145.616H125.761V154H123.617ZM123.617 144.448V142.32H125.761V144.448H123.617ZM131.599 154.16C130.916 154.16 130.303 154.048 129.759 153.824C129.215 153.589 128.751 153.269 128.367 152.864C127.983 152.448 127.684 151.979 127.471 151.456C127.268 150.933 127.167 150.384 127.167 149.808C127.167 149.019 127.343 148.299 127.695 147.648C128.057 146.987 128.569 146.459 129.231 146.064C129.892 145.669 130.676 145.472 131.583 145.472C132.489 145.472 133.268 145.669 133.919 146.064C134.569 146.459 135.055 146.976 135.375 147.616L133.279 148.256C133.097 147.947 132.857 147.712 132.559 147.552C132.26 147.381 131.929 147.296 131.567 147.296C131.161 147.296 130.788 147.403 130.447 147.616C130.116 147.819 129.855 148.112 129.663 148.496C129.471 148.869 129.375 149.307 129.375 149.808C129.375 150.299 129.471 150.736 129.663 151.12C129.865 151.493 130.132 151.792 130.463 152.016C130.793 152.229 131.161 152.336 131.567 152.336C131.823 152.336 132.063 152.293 132.287 152.208C132.521 152.123 132.729 152.005 132.911 151.856C133.092 151.707 133.225 151.536 133.311 151.344L135.407 151.984C135.215 152.4 134.932 152.773 134.559 153.104C134.196 153.435 133.764 153.696 133.263 153.888C132.772 154.069 132.217 154.16 131.599 154.16ZM136.15 151.52C136.15 150.976 136.299 150.501 136.598 150.096C136.907 149.68 137.334 149.36 137.878 149.136C138.422 148.912 139.046 148.8 139.75 148.8C140.102 148.8 140.459 148.827 140.822 148.88C141.185 148.933 141.499 149.019 141.766 149.136V148.688C141.766 148.155 141.606 147.744 141.286 147.456C140.977 147.168 140.513 147.024 139.894 147.024C139.435 147.024 138.998 147.104 138.582 147.264C138.166 147.424 137.729 147.659 137.27 147.968L136.582 146.56C137.137 146.197 137.702 145.925 138.278 145.744C138.865 145.563 139.478 145.472 140.118 145.472C141.313 145.472 142.241 145.771 142.902 146.368C143.574 146.965 143.91 147.819 143.91 148.928V151.6C143.91 151.824 143.947 151.984 144.022 152.08C144.107 152.176 144.241 152.235 144.422 152.256V154C144.23 154.032 144.054 154.059 143.894 154.08C143.745 154.101 143.617 154.112 143.51 154.112C143.083 154.112 142.758 154.016 142.534 153.824C142.321 153.632 142.187 153.397 142.134 153.12L142.086 152.688C141.723 153.157 141.27 153.52 140.726 153.776C140.182 154.032 139.627 154.16 139.062 154.16C138.507 154.16 138.006 154.048 137.558 153.824C137.121 153.589 136.774 153.275 136.518 152.88C136.273 152.475 136.15 152.021 136.15 151.52ZM141.366 151.952C141.483 151.824 141.579 151.696 141.654 151.568C141.729 151.44 141.766 151.323 141.766 151.216V150.368C141.51 150.261 141.233 150.181 140.934 150.128C140.635 150.064 140.353 150.032 140.086 150.032C139.531 150.032 139.073 150.155 138.71 150.4C138.358 150.635 138.182 150.949 138.182 151.344C138.182 151.557 138.241 151.76 138.358 151.952C138.475 152.144 138.646 152.299 138.87 152.416C139.094 152.533 139.361 152.592 139.67 152.592C139.99 152.592 140.305 152.533 140.614 152.416C140.923 152.288 141.174 152.133 141.366 151.952Z" fill="#464646"/>
<defs>
<clipPath id="clip0_1_312">
<rect width="32" height="32" fill="white" transform="translate(16 99)"/>
</clipPath>
</defs>
</svg>
